# xmcd
#
# Track frame offsets: 
#        150
#        17945
#        32327
#        47844
#        64249
#        79480
#        99447
#        113706
#        131470
#        146946
#        162163
#
# Disc length: 2406 seconds
#
# Revision: 2
# Processed by: cddbd v1.5.2PL0 Copyright (c) Steve Scherf et al.
# Submitted via: ExactAudioCopy v1.1
#
DISCID=9409640b
DTITLE=Lukas Graham - Lukas Graham
DYEAR=2016
DGENRE=Rock
TTITLE0=7 Years
TTITLE1=Take The World By Storm
TTITLE2=Mama Said
TTITLE3=Happy Home
TTITLE4=Drunk In The Morning
TTITLE5=Better Than Yourself (Criminal Mind Pt. 2)
TTITLE6=Don't You Worry 'Bout Me
TTITLE7=What Happened To Perfect
TTITLE8=Strip No More
TTITLE9=You're Not There
TTITLE10=Funeral
EXTD=
EXTT0=
EXTT1=
EXTT2=
EXTT3=
EXTT4=
EXTT5=
EXTT6=
EXTT7=
EXTT8=
EXTT9=
EXTT10=
PLAYORDER=
